# xmcd
#
# Track frame offsets:
#	182
#	14990
#	31820
#	51555
#	70195
#	82812
#	96637
#	109090
#	125570
#	136807
#	160060
#	173895
#	186860
#	200312
#
# Disc length: 2892 seconds
#
# Revision: 3
# Processed by: cddbd v1.5.2PL0 Copyright (c) Steve Scherf et al.
# Submitted via: audiograbber 1.83.01
#
DISCID=c40b4a0e
DTITLE=Shirley Bassey - Something Else
DYEAR=1999
DGENRE=Vocal
TTITLE0=(Where Do I Begin) Love Story
TTITLE1='Til Love Touches Your Lfe
TTITLE2=Easy Thing to Do
TTITLE3=Until It's Time for You to Go
TTITLE4=It's Impossible
TTITLE5=What's Done is Done
TTITLE6=Pieces of Dreams
TTITLE7=Breakfast in Bed
TTITLE8=Excuse Me
TTITLE9=Bridge over Troubled Water
TTITLE10=I'm Not There
TTITLE11=I'd Like to Hate Myself in the Morning (and Raise a Little Hell)
TTITLE12=For the Love of Him
TTITLE13=Vehicle
EXTD=Digital remastered plus 2 Bonustracks
EXTT0=
EXTT1=
EXTT2=
EXTT3=
EXTT4=
EXTT5=
EXTT6=
EXTT7=
EXTT8=
EXTT9=
EXTT10=
EXTT11=
EXTT12=
EXTT13=
PLAYORDER=
